<svg xmlns="http://www.w3.org/2000/svg" width="734" height="1517" fill="none"><g filter="url(#a)" transform="translate(-77)"><rect width="706" height="1499" rx="85.744" transform="matrix(-1 0 0 1 796 9)" fill="#080608"/></g><rect x="-722.5" y="5.5" width="713" height="1506" rx="89.244" transform="scale(-1 1)" stroke="#fff" stroke-width="7"/><g filter="url(#b)" transform="translate(-77)"><rect width="706" height="1499" rx="85.744" transform="matrix(-1 0 0 1 796 9)" fill="#080608"/></g><rect x="-722.5" y="5.5" width="713" height="1506" rx="89.244" transform="scale(-1 1)" stroke="#fff" stroke-width="7"/><g filter="url(#c)" transform="translate(-77)"><rect width="662" height="1444" rx="74" transform="matrix(-1 0 0 1 774 36)" fill="#161820"/></g><circle cx="123" cy="79" r="19" fill="#080608"/><g filter="url(#d)" transform="translate(-77)"><rect x="-3.5" y="3.5" width="713" height="1506" rx="89.5" transform="matrix(-1 0 0 1 796 2)" stroke="url(#e)" stroke-width="7" style="stroke:url(#e)"/></g><path fill="#455053" d="M731 563h-5v140h5z"/><path d="M734 566a3 3 0 0 0-3-3v140a3 3 0 0 0 3-3z" fill="#91989a"/><path fill="#455053" d="M6 578H4v108h2z"/><path d="M4 578a4 4 0 0 0-4 4v100a4 4 0 0 0 4 4z" fill="#fbfdff"/><path fill="#455053" d="M6 429H4v108h2z"/><path d="M4 429a4 4 0 0 0-4 4v100a4 4 0 0 0 4 4z" fill="#fbfdff"/><path fill="#e6e8ec" d="M13 308H4v14h9zM13 1173H4v14h9zM728 434h-9v14h9zM606 9V0h-14v9zM155 9V0h-14v9zM465 1517v-9h-14v9zM266 1517v-9h-14v9z"/><defs><filter id="a" x="83" y="2" width="720" height="1513" filterUnits="userSpaceOnUse" color-interpolation-filters="sRGB"><feFlood flood-opacity="0" result="BackgroundImageFix"/><feBlend in="SourceGraphic" in2="BackgroundImageFix" result="shape"/><feColorMatrix in="SourceAlpha" values="0 0 0 0 0 0 0 0 0 0 0 0 0 0 0 0 0 0 127 0" result="hardAlpha"/><feOffset/><feGaussianBlur stdDeviation="2"/><feComposite in2="hardAlpha" operator="arithmetic" k2="-1" k3="1"/><feColorMatrix values="0 0 0 0 0 0 0 0 0 0 0 0 0 0 0 0 0 0 0.35 0"/><feBlend in2="shape" result="effect1_innerShadow_1_9"/></filter><filter id="b" x="83" y="2" width="720" height="1513" filterUnits="userSpaceOnUse" color-interpolation-filters="sRGB"><feFlood flood-opacity="0" result="BackgroundImageFix"/><feBlend in="SourceGraphic" in2="BackgroundImageFix" result="shape"/><feColorMatrix in="SourceAlpha" values="0 0 0 0 0 0 0 0 0 0 0 0 0 0 0 0 0 0 127 0" result="hardAlpha"/><feOffset/><feGaussianBlur stdDeviation="2"/><feComposite in2="hardAlpha" operator="arithmetic" k2="-1" k3="1"/><feColorMatrix values="0 0 0 0 0 0 0 0 0 0 0 0 0 0 0 0 0 0 0.35 0"/><feBlend in2="shape" result="effect1_innerShadow_1_9"/></filter><filter id="c" x="112" y="36" width="662" height="1444" filterUnits="userSpaceOnUse" color-interpolation-filters="sRGB"><feFlood flood-opacity="0" result="BackgroundImageFix"/><feBlend in="SourceGraphic" in2="BackgroundImageFix" result="shape"/><feColorMatrix in="SourceAlpha" values="0 0 0 0 0 0 0 0 0 0 0 0 0 0 0 0 0 0 127 0" result="hardAlpha"/><feOffset/><feGaussianBlur stdDeviation="2"/><feComposite in2="hardAlpha" operator="arithmetic" k2="-1" k3="1"/><feColorMatrix values="0 0 0 0 0 0 0 0 0 0 0 0 0 0 0 0 0 0 0.35 0"/><feBlend in2="shape" result="effect1_innerShadow_1_9"/></filter><filter id="d" x="83" y="2" width="720" height="1513" filterUnits="userSpaceOnUse" color-interpolation-filters="sRGB"><feFlood flood-opacity="0" result="BackgroundImageFix"/><feBlend in="SourceGraphic" in2="BackgroundImageFix" result="shape"/><feColorMatrix in="SourceAlpha" values="0 0 0 0 0 0 0 0 0 0 0 0 0 0 0 0 0 0 127 0" result="hardAlpha"/><feOffset/><feGaussianBlur stdDeviation="1"/><feComposite in2="hardAlpha" operator="arithmetic" k2="-1" k3="1"/><feColorMatrix values="0 0 0 0 0 0 0 0 0 0 0 0 0 0 0 0 0 0 0.85 0"/><feBlend in2="shape" result="effect1_innerShadow_1_9"/></filter><linearGradient id="e" x1="720" y1="-86" x2="-131.5" y2="1563" gradientUnits="userSpaceOnUse"><stop stop-color="#fff" offset=".318"/><stop offset=".318" stop-color="#CFCFCF"/><stop offset=".677" stop-color="#B7B1B1"/><stop offset="1" stop-color="#fff"/></linearGradient></defs></svg>
